<?xml version="1.0" encoding="UTF-8"?><svg id="b" xmlns="http://www.w3.org/2000/svg" xmlns:xlink="http://www.w3.org/1999/xlink" viewBox="0 0 344.74 528.82"><defs><style>.h{fill:url(#g);}.i{fill:url(#f);}.j{fill:url(#d);}.k{fill:url(#e);}</style><linearGradient id="d" x1="63.91" y1="246.92" x2="167.13" y2="246.92" gradientUnits="userSpaceOnUse"><stop offset="0" stop-color="#d7ac2e"/><stop offset="1" stop-color="#f1d784"/></linearGradient><linearGradient id="e" x1="104.32" y1="135.85" x2="344.74" y2="135.85" gradientUnits="userSpaceOnUse"><stop offset="0" stop-color="#f59e1e"/><stop offset=".25" stop-color="#e7750d"/><stop offset=".5" stop-color="#e8561e"/><stop offset=".75" stop-color="#e43719"/><stop offset="1" stop-color="#e52d23"/></linearGradient><linearGradient id="f" x1="9222.66" y1="7305.89" x2="9325.89" y2="7305.89" gradientTransform="translate(9503.49 7587.8) rotate(-180)" gradientUnits="userSpaceOnUse"><stop offset="0" stop-color="#83adbe"/><stop offset="1" stop-color="#bde2f1"/></linearGradient><linearGradient id="g" x1="9260.91" y1="7261.06" x2="9530.79" y2="7135.21" gradientTransform="translate(9503.49 7587.8) rotate(-180)" gradientUnits="userSpaceOnUse"><stop offset="0" stop-color="#bde2f1"/><stop offset=".25" stop-color="#83adbe"/><stop offset=".5" stop-color="#587f8c"/><stop offset=".75" stop-color="#264559"/><stop offset="1" stop-color="#101d26"/></linearGradient></defs><g id="c"><g><g><path class="j" d="m63.91,280.25s.9,36.72,1.35,41.23c.45,4.51,7.99,30,36.72,17.12,10.14-5.41,50.69-27.93,50.69-27.93,0,0,29.11-14.6,4.73-38.98-3.04-4.53-37.85-30.19-14.87-69.39,22.98-39.2-13.1-50.66-13.1-50.66,0,0-25.87,17.09-40.4,35.68-14.53,18.59-24.89,39.88-25.12,92.93Z"/><path class="k" d="m322.83,63.58l4.2-3.22,3.98-3.13,2.88-2.34,3.67-3.06,2.81-2.46,2.69-2.46,1.68-1.54-.87.54-1.37.83-2.37,1.47-1.82,1.16-3.23,2.15-2.37,1.62-2.72,1.94-2.76,2.01-2.2,1.64-1.93,1.45,1.24-1.07.86-.77,1.11-1,1.24-1.13,1.37-1.28.97-.9-1.03.62-1.13.69-1.83,1.13-2.24,1.43-2.12,1.39-1.45.99.87-.71.8-.66,1.09-.9,1.86-1.55,2.54-2.2,1.58-1.41,2.2-2,1.76-1.61-2.37,1.42-3.52,2.2-3.17,2.09-3.61,2.51,2.36-1.83,1.66-1.31,2.52-2.02,1.92-1.59,1.76-1.48,1.83-1.55,1.59-1.42,2.44-2.21,2.28-2.12-1.71,1.03-2.08,1.28-2.87,1.83-3.75,2.51-4.2,2.96,2.92-2.57,2.34-2.13,1.75-1.63-1.35.82-2.85,1.76-4.19,2.69,4.19-3.29,2.47-1.99,2.86-2.39,2.91-2.51,2.98-2.67,2.51-2.33-1.37.83-1.61.97-2.82,1.81-2.79,1.82-2.57,1.76-3.36,2.36,2.36-1.97,1.28-1.09,1.22-1.04,1.75-1.55,2.85-2.58,1.34-1.3-.89.56-1.66.99-3.57,2.26-5.9,3.96,4.39-3.37,2.61-2.07,2.58-2.1,2.81-2.34,1.69-1.48,1.69-1.52,2.52-2.29,1.62-1.51-2.81,1.71-2.3,1.44-2.27,1.47-2.26,1.54,1.33-1.16,1.51-1.35,2.07-1.89,1.83-1.69-.54.31-1.07.66-1.4.85-2.96,1.88-3.97,2.63-2.94,2.06-1.56,1.1.77-.64,1.18-.98,1.18-.98,1.97-1.73,2.05-1.81,2.45-2.26,1.18-1.1-.56.33-1.12.68-1.32.82-1.94,1.2-1.35.88,1.18-1.04,2.46-2.2,1.85-1.69,1.4-1.3-3.1,1.9-2.43,1.52-3.22,2.11-4.63,3.22.81-.75.73-.62,1.28-1.19,1.35-1.2,2.97-2.75-3.78,2.33-2.77,1.75-7.19,4.92-1.07.77-.08.06-1,.6,1.06-.83,1.26-1.01,1.59-1.26,2.26-1.86,2.21-1.85,3.09-2.67,3.64-3.29,1.37-1.3-3.07,1.86-3.34,2.11,1.45-1.36-1.6.96-1.61.99-2.31,1.47-3.19,2.09,2.33-2.16.75-.6,1.89-1.55,3.22-2.71,3.61-3.16,3.79-3.5-5.49,3.39-3.7,2.44-5.23,3.65,2.58-2.03,2.24-1.8,2.95-2.44,2-1.69,4.44-3.92,2.7-2.52-4.98,3.08-3.2,2.09-4.03,2.78,1.48-1.31,1.58-1.44,1.62-1.48,1.75-1.62-1.2.72-3.24,2.02-4.2,2.72-2,1.38,1.31-1.09,1.52-1.28,1.96-1.65,2.12-1.83,2.26-2,2.89-2.68-2.62,1.58-2.45,1.52-2.88,1.89-2.67,1.82-.79.52.54-.51,1.04-.89,2.67-2.37,1.33-1.21,1.93-1.81-1.44.86-1.14.69-3.03,1.9-3.09,2.05,2.31-1.85,5.05-4.09,5.19-4.43,4.51-4.15-4.23,2.6-4.82,3.13-8.29,5.84,3.61-3.1,5.64-5.08-5.7,3.54-5.84,3.94,4.46-4.09-3.53,2.12-3.08,2,6.29-5.13,5.56-4.8,3.47-3.13-3.12,1.95-4.41,2.9-5.12,3.5-8.05,5.83-8.54,6.51-27.44,21.46-65.73,49.63h0l-91.18,68.57s-48.14,45.8,39.95,111.35c-3.83-5.63-45.96-50.69,13.97-82,10.1-5.71,24.02-13.77,37.26-21.49h0l108.82-62.95,3.97-2.67,1.9-1.29-1.03.47-2.05.93-3.16,1.47-1.69.83,1.16-.77,2.51-1.69,3.21-2.24,4.47-3.21-1.62.78-1.44.71-4.1,2.05-4.18,2.22-3.36,1.84.51-.32,1.87-1.22,3.02-1.99,3-2.07,2.83-2.03,2.41-1.81,2.01-1.52-.72.36-2.28,1.08-3.45,1.72-3.41,1.8-2.32,1.28.46-.33,1.22-.89,1.91-1.49,1.97-1.51-.95.47,1.47-1.03-2.08.89,4.04-3.02,2.48-1.95-2.75,1.34-2.59,1.34,3.36-2.66,2.92-2.4,3.09-2.61,2.79-2.41-4.32,2.6-3.55,2.23-1.96,1.28.88-.74,1.41-1.2,3.34-2.94,3.34-3.1-4.1,2.5-3.6,2.31-2.13,1.43-2.47,1.73-2.55,1.81,1.92-1.61,1.84-1.57,1.65-1.08,2.35-1.57,3.05-2.12,3.7-2.69,2.87-2.18-2.84,1.36-3.35,1.66-2.56,1.34-1.81.97.57-.35.93-.59,1.66-1.1,1.95-1.29,2.18-1.49,2-1.38,4.28-3.09,2.74-2.08-2.05.97-3.16,1.55-3.51,1.82-2.04,1.09-2.63,1.49-2.52,1.43-1.91,1.12,1.37-1.11,1.56-1.27,2.33-1.96,1.97-1.69,2.82-2.52,1.26-1.14,1.75-1.66-1.19.71-2.45,1.51,1.49-1.31,1.51-1.33,1.86-1.69,2.07-1.95-1.85,1.11-2.67,1.65-2.83,1.83-3.51,2.36-1.06.69,1.92-1.78,1-.93-1.39.83-2.31,1.42-1.35.86-.85.56,1.18-1.04,1.59-1.1,1.5-1.06,2.29-1.64,1.96-1.46,2.09-1.59-1.83.86-3.71,1.82-2.48,1.28,2.06-1.64,2.43-1.99,2.56-2.14,1.85-1.61,2.11-1.86,2.28-2.08,1.58-1.46-1.77,1.07-2.37,1.46-3.85,2.49-3.87,2.64-3.2,2.27-2.21,1.61,2.53-2.02,3.25-2.68,2.34-1.99,2.79-2.46,1.95-1.79,1.89-1.75-1.29.78-1.93,1.17-2.19,1.4-2.33,1.51-1.88,1.27,1.11-.97.97-.85,1.84-1.66,1.81-1.68,1.07-.97-.61.36-1.97,1.2-2.33,1.46-2.62,1.69-2,1.35.86-.72,1.4-1.24,2.43-2.13,3.72-3.42-4.72,2.88-5.27,3.48-3.86,2.71.45-.41-1.51.94.86-.66,1.95-1.44Z"/></g><g><path class="i" d="m280.83,248.57s-.9-36.72-1.35-41.23c-.45-4.51-7.99-30-36.72-17.12-10.14,5.41-50.69,27.93-50.69,27.93,0,0-29.11,14.6-4.73,38.98,3.04,4.53,37.85,30.19,14.87,69.39-22.98,39.2,13.1,50.66,13.1,50.66,0,0,25.87-17.09,40.4-35.68,14.53-18.59,24.89-39.88,25.12-92.93Z"/><path class="h" d="m21.91,465.25l-4.2,3.22-3.98,3.13-2.88,2.34-3.67,3.06-2.81,2.46-2.69,2.46-1.68,1.54.87-.54,1.37-.83,2.37-1.47,1.82-1.16,3.23-2.15,2.37-1.62,2.72-1.94,2.76-2.01,2.2-1.64,1.93-1.45-1.24,1.07-.86.77-1.11,1-1.24,1.13-1.37,1.28-.97.9,1.03-.62,1.13-.69,1.83-1.13,2.24-1.43,2.12-1.39,1.45-.99-.87.71-.8.66-1.09.9-1.86,1.55-2.54,2.2-1.58,1.41-2.2,2-1.76,1.61,2.37-1.42,3.52-2.2,3.17-2.09,3.61-2.51-2.36,1.83-1.66,1.31-2.52,2.02-1.92,1.59-1.76,1.48-1.83,1.55-1.59,1.42-2.44,2.21-2.28,2.12,1.71-1.03,2.08-1.28,2.87-1.83,3.75-2.51,4.2-2.96-2.92,2.57-2.34,2.13-1.75,1.63,1.35-.82,2.85-1.76,4.19-2.69-4.19,3.29-2.47,1.99-2.86,2.39-2.91,2.51-2.98,2.67-2.51,2.33,1.37-.83,1.61-.97,2.82-1.81,2.79-1.82,2.57-1.76,3.36-2.36-2.36,1.97-1.28,1.09-1.22,1.04-1.75,1.55-2.85,2.58-1.34,1.3.89-.56,1.66-.99,3.57-2.26,5.9-3.96-4.39,3.37-2.61,2.07-2.58,2.1-2.81,2.34-1.69,1.48-1.69,1.52-2.52,2.29-1.62,1.51,2.81-1.71,2.3-1.44,2.27-1.47,2.26-1.54-1.33,1.16-1.51,1.35-2.07,1.89-1.83,1.69.54-.31,1.07-.66,1.4-.85,2.96-1.88,3.97-2.63,2.94-2.06,1.56-1.1-.77.64-1.18.98-1.18.98-1.97,1.73-2.05,1.81-2.45,2.26-1.18,1.1.56-.33,1.12-.68,1.32-.82,1.94-1.2,1.35-.88-1.18,1.04-2.46,2.2-1.85,1.69-1.4,1.3,3.1-1.9,2.43-1.52,3.22-2.11,4.63-3.22-.81.75-.73.62-1.28,1.19-1.35,1.2-2.97,2.75,3.78-2.33,2.77-1.75,7.19-4.92,1.07-.77.08-.06,1-.6-1.06.83-1.26,1.01-1.59,1.26-2.26,1.86-2.21,1.85-3.09,2.67-3.64,3.29-1.37,1.3,3.07-1.86,3.34-2.11-1.45,1.36,1.6-.96,1.61-.99,2.31-1.47,3.19-2.09-2.33,2.16-.75.6-1.89,1.55-3.22,2.71-3.61,3.16-3.79,3.5,5.49-3.39,3.7-2.44,5.23-3.65-2.58,2.03-2.24,1.8-2.95,2.44-2,1.69-4.44,3.92-2.7,2.52,4.98-3.08,3.2-2.09,4.03-2.78-1.48,1.31-1.58,1.44-1.62,1.48-1.75,1.62,1.2-.72,3.24-2.02,4.2-2.72,2-1.38-1.31,1.09-1.52,1.28-1.96,1.65-2.12,1.83-2.26,2-2.89,2.68,2.62-1.58,2.45-1.52,2.88-1.89,2.67-1.82.79-.52-.54.51-1.04.89-2.67,2.37-1.33,1.21-1.93,1.81,1.44-.86,1.14-.69,3.03-1.9,3.09-2.05-2.31,1.85-5.05,4.09-5.19,4.43-4.51,4.15,4.23-2.6,4.82-3.13,8.29-5.84-3.61,3.1-5.64,5.08,5.7-3.54,5.84-3.94-4.46,4.09,3.53-2.12,3.08-2-6.29,5.13-5.56,4.8-3.47,3.13,3.12-1.95,4.41-2.9,5.12-3.5,8.05-5.83,8.54-6.51,27.44-21.46,65.73-49.63h0l91.18-68.57s48.14-45.8-39.95-111.35c3.83,5.63,45.96,50.69-13.97,82-10.1,5.71-24.02,13.77-37.26,21.49h0l-108.82,62.95-3.97,2.67-1.9,1.29,1.03-.47,2.05-.93,3.16-1.47,1.69-.83-1.16.77-2.51,1.69-3.21,2.24-4.47,3.21,1.62-.78,1.44-.71,4.1-2.05,4.18-2.22,3.36-1.84-.51.32-1.87,1.22-3.02,1.99-3,2.07-2.83,2.03-2.41,1.81-2.01,1.52.72-.36,2.28-1.08,3.45-1.72,3.41-1.8,2.32-1.28-.46.33-1.22.89-1.91,1.49-1.97,1.51.95-.47-1.47,1.03,2.08-.89-4.04,3.02-2.48,1.95,2.75-1.34,2.59-1.34-3.36,2.66-2.92,2.4-3.09,2.61-2.79,2.41,4.32-2.6,3.55-2.23,1.96-1.28-.88.74-1.41,1.2-3.34,2.94-3.34,3.1,4.1-2.5,3.6-2.31,2.13-1.43,2.47-1.73,2.55-1.81-1.92,1.61-1.84,1.57-1.65,1.08-2.35,1.57-3.05,2.12-3.7,2.69-2.87,2.18,2.84-1.36,3.35-1.66,2.56-1.34,1.81-.97-.57.35-.93.59-1.66,1.1-1.95,1.29-2.18,1.49-2,1.38-4.28,3.09-2.74,2.08,2.05-.97,3.16-1.55,3.51-1.82,2.04-1.09,2.63-1.49,2.52-1.43,1.91-1.12-1.37,1.11-1.56,1.27-2.33,1.96-1.97,1.69-2.82,2.52-1.26,1.14-1.75,1.66,1.19-.71,2.45-1.51-1.49,1.31-1.51,1.33-1.86,1.69-2.07,1.95,1.85-1.11,2.67-1.65,2.83-1.83,3.51-2.36,1.06-.69-1.92,1.78-1,.93,1.39-.83,2.31-1.42,1.35-.86.85-.56-1.18,1.04-1.59,1.1-1.5,1.06-2.29,1.64-1.96,1.46-2.09,1.59,1.83-.86,3.71-1.82,2.48-1.28-2.06,1.64-2.43,1.99-2.56,2.14-1.85,1.61-2.11,1.86-2.28,2.08-1.58,1.46,1.77-1.07,2.37-1.46,3.85-2.49,3.87-2.64,3.2-2.27,2.21-1.61-2.53,2.02-3.25,2.68-2.34,1.99-2.79,2.46-1.95,1.79-1.89,1.75,1.29-.78,1.93-1.17,2.19-1.4,2.33-1.51,1.88-1.27-1.11.97-.97.85-1.84,1.66-1.81,1.68-1.07.97.61-.36,1.97-1.2,2.33-1.46,2.62-1.69,2-1.35-.86.72-1.4,1.24-2.43,2.13-3.72,3.42,4.72-2.88,5.27-3.48,3.86-2.71-.45.41,1.51-.94-.86.66-1.95,1.44Z"/></g></g></g></svg>