<?xml version="1.0" encoding="UTF-8"?><svg id="b" xmlns="http://www.w3.org/2000/svg" viewBox="0 0 511.83 251.58"><g id="c"><g><path d="m121.35,131.35l15.78-.22v9.11c-1.78-.29-3.86-.44-6.22-.44s-5.04.15-8,.44c0,11.41-5.48,22.97-16.45,34.67-10.97,11.7-24.19,21.22-39.67,28.56-15.48,7.33-29.89,11-43.23,11-6.97,0-12.63-1.78-17-5.34-4.37-3.56-6.56-8.22-6.56-14,0-8.59,5.7-17.56,17.11-26.89,11.41-9.33,24.74-17.04,40.01-23.11,15.26-6.07,29.04-9.63,41.34-10.67-1.48-2.22-3.78-4.15-6.89-5.78-3.11-1.63-9.49-4.18-19.11-7.67-9.63-3.48-16.45-7.33-20.45-11.56-4-4.22-6-10.18-6-17.89s4.15-16.52,12.44-26.45c8.3-9.92,18.11-18.26,29.45-25,11.34-6.74,21.3-10.11,29.89-10.11,3.85,0,7.04,1.37,9.56,4.11,2.52,2.74,3.78,6.11,3.78,10.11,0,6.52-3.93,14.71-11.78,24.56-7.86,9.86-16.6,17.37-26.23,22.56l-5.33-7.56c5.78-2.96,10.85-7.59,15.22-13.89,4.37-6.3,6.56-11.74,6.56-16.34s-2.45-6.89-7.33-6.89c-6.97,0-14.93,4.33-23.89,13-8.97,8.67-13.45,16.78-13.45,24.34,0,5.19,1.33,9.26,4,12.22,2.67,2.97,9.41,6.63,20.23,11,10.81,4.37,18.52,8.22,23.11,11.56,4.59,3.33,7.63,7.52,9.11,12.56Zm-99.12,58.01c0,7.11,5.78,10.67,17.34,10.67,6.37,0,14.63-2.33,24.78-7,10.15-4.66,19.11-11.19,26.89-19.56,7.78-8.37,11.67-16.93,11.67-25.67,0-1.03-.22-2.59-.67-4.67-20.3,1.93-38.71,7.63-55.23,17.11-16.52,9.49-24.78,19.19-24.78,29.12Z"/><path d="m232.92,157.57l.67,5.78c-.6.44-7.48,3.11-20.67,8-1.78,9.78-4.04,19.45-6.78,29-2.74,9.56-5.48,16.82-8.22,21.78-2.74,4.96-5.97,9.89-9.67,14.78-7.41,9.78-17.41,14.67-30.01,14.67-6.22,0-11.19-1.93-14.89-5.78-3.71-3.86-5.56-9.11-5.56-15.78,0-25.63,21.48-46.23,64.45-61.78l12-42.23c-12.74,19.11-24.22,30.89-34.45,35.34-5.04,2.37-10.33,3.56-15.89,3.56s-10-1.78-13.33-5.33c-3.33-3.56-5-8.74-5-15.56s2.33-16.34,7-28.56c4.67-12.22,9.89-22.48,15.67-30.78l10.89,4.67c-.44.44-2.52,4.37-6.22,11.78-6.52,13.49-9.78,23.49-9.78,30s1.26,10.89,3.78,13.11c2.52,2.22,6.22,3.33,11.11,3.33s10.41-2.92,16.56-8.78c6.15-5.85,15.67-17.45,28.56-34.78l8,4.67c-1.19,4.89-3.82,13.74-7.89,26.56-4.08,12.82-6.85,22.63-8.33,29.45l18-7.11Zm-32,17.34c-9.33,4.3-17.56,9.18-24.67,14.67-13.33,10.07-20,19.85-20,29.34,0,3.56,1.03,6.44,3.11,8.67,2.07,2.22,4.67,3.33,7.78,3.33,14.81,0,26.07-18.67,33.78-56.01Z"/><path d="m276.47,150.24l4.66,3.78c-5.04,7.86-9.37,13.52-13,17-3.63,3.48-7.67,5.22-12.11,5.22s-8.08-1.78-10.89-5.34c-2.82-3.56-4.22-8-4.22-13.33,0-10.37,6.81-32.7,20.45-67.01,13.63-34.3,27.63-64.49,42-90.57l9.78,5.34c-14.52,28.15-27.63,56.12-39.34,83.9-11.71,27.78-17.56,47.75-17.56,59.9,0,6.97,2.59,10.45,7.78,10.45,4.15,0,8.3-3.11,12.45-9.33Z"/><path d="m344.48,142.9l4.45,3.78c-3.56,6.82-8.26,12.63-14.11,17.45-5.85,4.81-11.15,7.22-15.89,7.22-8.3,0-12.44-5.78-12.44-17.34,0-14.37,5.92-33.11,17.78-56.23,2.67-5.04,4.22-8,4.67-8.89l9.56,5.78c-3.11,5.63-6.93,14.59-11.45,26.89-4.52,12.3-6.78,20.19-6.78,23.67s.74,5.97,2.22,7.45c1.48,1.48,3.26,2.22,5.34,2.22,4,0,9.56-4,16.67-12Zm2.89-65.56c-8.3,0-12.44-3.33-12.44-10,0-3.7,1.03-6.81,3.11-9.33,2.07-2.52,4.74-3.78,8-3.78s5.92.96,8,2.89c2.07,1.93,3.11,4.44,3.11,7.56s-.89,6-2.67,8.67c-1.78,2.67-4.15,4-7.11,4Z"/><path d="m421.82,140.02l5.33,4.45c-3.56,8.15-9.26,14.67-17.11,19.56-7.86,4.89-15.45,7.33-22.78,7.33s-13.41-2.3-18.22-6.89c-4.82-4.59-7.23-10.89-7.23-18.89s3.48-16.67,10.45-26c6.96-9.33,15.96-17.04,27-23.11,11.04-6.07,21.89-9.11,32.56-9.11,1.48,0,3.7.15,6.67.44l-.67,8.67c-16.3.74-29.82,5.7-40.56,14.89-10.75,9.19-16.11,18.97-16.11,29.34,0,4.3,1.33,7.78,4,10.45,2.67,2.67,6.15,4,10.45,4,6.81,0,15.56-5.04,26.23-15.11Z"/><path d="m506.05,105.57c3.85,6.37,5.78,13.41,5.78,21.11,0,12-4.15,22.71-12.45,32.11-8.3,9.41-18.08,14.11-29.33,14.11-8.6,0-15.3-2.48-20.11-7.45-4.82-4.96-7.22-11.81-7.22-20.56,0-14.08,5.48-26.71,16.45-37.89,10.96-11.19,23.26-16.78,36.89-16.78,2.52,0,4.3.08,5.34.22l.67,7.33c-11.86,0-21.71,3.41-29.56,10.22-7.85,6.82-11.78,15.56-11.78,26.23,0,6.37,1.56,11.52,4.67,15.45,3.11,3.93,7.67,5.89,13.67,5.89s10.78-2.67,14.33-8c3.56-5.33,5.33-11.59,5.33-18.78s-1.41-13.74-4.22-19.67l11.56-3.56Z"/></g></g></svg>