<?xml version="1.0" encoding="UTF-8"?><svg id="b" xmlns="http://www.w3.org/2000/svg" xmlns:xlink="http://www.w3.org/1999/xlink" viewBox="0 0 413.94 764.42"><defs><style>.h{fill:url(#g);}.i{fill:url(#f);}.j{fill:url(#d);}.k{fill:url(#e);}.l{fill:#fff;}</style><linearGradient id="d" x1="98.5" y1="246.92" x2="201.73" y2="246.92" gradientUnits="userSpaceOnUse"><stop offset="0" stop-color="#d7ac2e"/><stop offset="1" stop-color="#f1d784"/></linearGradient><linearGradient id="e" x1="138.92" y1="135.85" x2="379.33" y2="135.85" gradientUnits="userSpaceOnUse"><stop offset="0" stop-color="#f59e1e"/><stop offset=".25" stop-color="#e7750d"/><stop offset=".5" stop-color="#e8561e"/><stop offset=".75" stop-color="#e43719"/><stop offset="1" stop-color="#e52d23"/></linearGradient><linearGradient id="f" x1="10705.64" y1="5607.79" x2="10808.87" y2="5607.79" gradientTransform="translate(11021.07 5889.69) rotate(-180)" gradientUnits="userSpaceOnUse"><stop offset="0" stop-color="#83adbe"/><stop offset="1" stop-color="#bde2f1"/></linearGradient><linearGradient id="g" x1="10743.9" y1="5562.96" x2="11013.78" y2="5437.11" gradientTransform="translate(11021.07 5889.69) rotate(-180)" gradientUnits="userSpaceOnUse"><stop offset="0" stop-color="#bde2f1"/><stop offset=".25" stop-color="#83adbe"/><stop offset=".5" stop-color="#587f8c"/><stop offset=".75" stop-color="#264559"/><stop offset="1" stop-color="#101d26"/></linearGradient></defs><g id="c"><g><g><g><path class="j" d="m98.5,280.25s.9,36.72,1.35,41.23c.45,4.51,7.99,30,36.72,17.12,10.14-5.41,50.69-27.93,50.69-27.93,0,0,29.11-14.6,4.73-38.98-3.04-4.53-37.85-30.19-14.87-69.39,22.98-39.2-13.1-50.66-13.1-50.66,0,0-25.87,17.09-40.4,35.68-14.53,18.59-24.89,39.88-25.12,92.93Z"/><path class="k" d="m357.42,63.58l4.2-3.22,3.98-3.13,2.88-2.34,3.67-3.06,2.81-2.46,2.69-2.46,1.68-1.54-.87.54-1.37.83-2.37,1.47-1.82,1.16-3.23,2.15-2.37,1.62-2.72,1.94-2.76,2.01-2.2,1.64-1.93,1.45,1.24-1.07.86-.77,1.11-1,1.24-1.13,1.37-1.28.97-.9-1.03.62-1.13.69-1.83,1.13-2.24,1.43-2.12,1.39-1.45.99.87-.71.8-.66,1.09-.9,1.86-1.55,2.54-2.2,1.58-1.41,2.2-2,1.76-1.61-2.37,1.42-3.52,2.2-3.17,2.09-3.61,2.51,2.36-1.83,1.66-1.31,2.52-2.02,1.92-1.59,1.76-1.48,1.83-1.55,1.59-1.42,2.44-2.21,2.28-2.12-1.71,1.03-2.08,1.28-2.87,1.83-3.75,2.51-4.2,2.96,2.92-2.57,2.34-2.13,1.75-1.63-1.35.82-2.85,1.76-4.19,2.69,4.19-3.29,2.47-1.99,2.86-2.39,2.91-2.51,2.98-2.67,2.51-2.33-1.37.83-1.61.97-2.82,1.81-2.79,1.82-2.57,1.76-3.36,2.36,2.36-1.97,1.28-1.09,1.22-1.04,1.75-1.55,2.85-2.58,1.34-1.3-.89.56-1.66.99-3.57,2.26-5.9,3.96,4.39-3.37,2.61-2.07,2.58-2.1,2.81-2.34,1.69-1.48,1.69-1.52,2.52-2.29,1.62-1.51-2.81,1.71-2.3,1.44-2.27,1.47-2.26,1.54,1.33-1.16,1.51-1.35,2.07-1.89,1.83-1.69-.54.31-1.07.66-1.4.85-2.96,1.88-3.97,2.63-2.94,2.06-1.56,1.1.77-.64,1.18-.98,1.18-.98,1.97-1.73,2.05-1.81,2.45-2.26,1.18-1.1-.56.33-1.12.68-1.32.82-1.94,1.2-1.35.88,1.18-1.04,2.46-2.2,1.85-1.69,1.4-1.3-3.1,1.9-2.43,1.52-3.22,2.11-4.63,3.22.81-.75.73-.62,1.28-1.19,1.35-1.2,2.97-2.75-3.78,2.33-2.77,1.75-7.19,4.92-1.07.77-.08.06-1,.6,1.06-.83,1.26-1.01,1.59-1.26,2.26-1.86,2.21-1.85,3.09-2.67,3.64-3.29,1.37-1.3-3.07,1.86-3.34,2.11,1.45-1.36-1.6.96-1.61.99-2.31,1.47-3.19,2.09,2.33-2.16.75-.6,1.89-1.55,3.22-2.71,3.61-3.16,3.79-3.5-5.49,3.39-3.7,2.44-5.23,3.65,2.58-2.03,2.24-1.8,2.95-2.44,2-1.69,4.44-3.92,2.7-2.52-4.98,3.08-3.2,2.09-4.03,2.78,1.48-1.31,1.58-1.44,1.62-1.48,1.75-1.62-1.2.72-3.24,2.02-4.2,2.72-2,1.38,1.31-1.09,1.52-1.28,1.96-1.65,2.12-1.83,2.26-2,2.89-2.68-2.62,1.58-2.45,1.52-2.88,1.89-2.67,1.82-.79.52.54-.51,1.04-.89,2.67-2.37,1.33-1.21,1.93-1.81-1.44.86-1.14.69-3.03,1.9-3.09,2.05,2.31-1.85,5.05-4.09,5.19-4.43,4.51-4.15-4.23,2.6-4.82,3.13-8.29,5.84,3.61-3.1,5.64-5.08-5.7,3.54-5.84,3.94,4.46-4.09-3.53,2.12-3.08,2,6.29-5.13,5.56-4.8,3.47-3.13-3.12,1.95-4.41,2.9-5.12,3.5-8.05,5.83-8.54,6.51-27.44,21.46-65.73,49.63h0l-91.18,68.57s-48.14,45.8,39.95,111.35c-3.83-5.63-45.96-50.69,13.97-82,10.1-5.71,24.02-13.77,37.26-21.49h0l108.82-62.95,3.97-2.67,1.9-1.29-1.03.47-2.05.93-3.16,1.47-1.69.83,1.16-.77,2.51-1.69,3.21-2.24,4.47-3.21-1.62.78-1.44.71-4.1,2.05-4.18,2.22-3.36,1.84.51-.32,1.87-1.22,3.02-1.99,3-2.07,2.83-2.03,2.41-1.81,2.01-1.52-.72.36-2.28,1.08-3.45,1.72-3.41,1.8-2.32,1.28.46-.33,1.22-.89,1.91-1.49,1.97-1.51-.95.47,1.47-1.03-2.08.89,4.04-3.02,2.48-1.95-2.75,1.34-2.59,1.34,3.36-2.66,2.92-2.4,3.09-2.61,2.79-2.41-4.32,2.6-3.55,2.23-1.96,1.28.88-.74,1.41-1.2,3.34-2.94,3.34-3.1-4.1,2.5-3.6,2.31-2.13,1.43-2.47,1.73-2.55,1.81,1.92-1.61,1.84-1.57,1.65-1.08,2.35-1.57,3.05-2.12,3.7-2.69,2.87-2.18-2.84,1.36-3.35,1.66-2.56,1.34-1.81.97.57-.35.93-.59,1.66-1.1,1.95-1.29,2.18-1.49,2-1.38,4.28-3.09,2.74-2.08-2.05.97-3.16,1.55-3.51,1.82-2.04,1.09-2.63,1.49-2.52,1.43-1.91,1.12,1.37-1.11,1.56-1.27,2.33-1.96,1.97-1.69,2.82-2.52,1.26-1.14,1.75-1.66-1.19.71-2.45,1.51,1.49-1.31,1.51-1.33,1.86-1.69,2.07-1.95-1.85,1.11-2.67,1.65-2.83,1.83-3.51,2.36-1.06.69,1.92-1.78,1-.93-1.39.83-2.31,1.42-1.35.86-.85.56,1.18-1.04,1.59-1.1,1.5-1.06,2.29-1.64,1.96-1.46,2.09-1.59-1.83.86-3.71,1.82-2.48,1.28,2.06-1.64,2.43-1.99,2.56-2.14,1.85-1.61,2.11-1.86,2.28-2.08,1.58-1.46-1.77,1.07-2.37,1.46-3.85,2.49-3.87,2.64-3.2,2.27-2.21,1.61,2.53-2.02,3.25-2.68,2.34-1.99,2.79-2.46,1.95-1.79,1.89-1.75-1.29.78-1.93,1.17-2.19,1.4-2.33,1.51-1.88,1.27,1.11-.97.97-.85,1.84-1.66,1.81-1.68,1.07-.97-.61.36-1.97,1.2-2.33,1.46-2.62,1.69-2,1.35.86-.72,1.4-1.24,2.43-2.13,3.72-3.42-4.72,2.88-5.27,3.48-3.86,2.71.45-.41-1.51.94.86-.66,1.95-1.44Z"/></g><g><path class="i" d="m315.43,248.57s-.9-36.72-1.35-41.23c-.45-4.51-7.99-30-36.72-17.12-10.14,5.41-50.69,27.93-50.69,27.93,0,0-29.11,14.6-4.73,38.98,3.04,4.53,37.85,30.19,14.87,69.39-22.98,39.2,13.1,50.66,13.1,50.66,0,0,25.87-17.09,40.4-35.68,14.53-18.59,24.89-39.88,25.12-92.93Z"/><path class="h" d="m56.5,465.25l-4.2,3.22-3.98,3.13-2.88,2.34-3.67,3.06-2.81,2.46-2.69,2.46-1.68,1.54.87-.54,1.37-.83,2.37-1.47,1.82-1.16,3.23-2.15,2.37-1.62,2.72-1.94,2.76-2.01,2.2-1.64,1.93-1.45-1.24,1.07-.86.77-1.11,1-1.24,1.13-1.37,1.28-.97.9,1.03-.62,1.13-.69,1.83-1.13,2.24-1.43,2.12-1.39,1.45-.99-.87.71-.8.66-1.09.9-1.86,1.55-2.54,2.2-1.58,1.41-2.2,2-1.76,1.61,2.37-1.42,3.52-2.2,3.17-2.09,3.61-2.51-2.36,1.83-1.66,1.31-2.52,2.02-1.92,1.59-1.76,1.48-1.83,1.55-1.59,1.42-2.44,2.21-2.28,2.12,1.71-1.03,2.08-1.28,2.87-1.83,3.75-2.51,4.2-2.96-2.92,2.57-2.34,2.13-1.75,1.63,1.35-.82,2.85-1.76,4.19-2.69-4.19,3.29-2.47,1.99-2.86,2.39-2.91,2.51-2.98,2.67-2.51,2.33,1.37-.83,1.61-.97,2.82-1.81,2.79-1.82,2.57-1.76,3.36-2.36-2.36,1.97-1.28,1.09-1.22,1.04-1.75,1.55-2.85,2.58-1.34,1.3.89-.56,1.66-.99,3.57-2.26,5.9-3.96-4.39,3.37-2.61,2.07-2.58,2.1-2.81,2.34-1.69,1.48-1.69,1.52-2.52,2.29-1.62,1.51,2.81-1.71,2.3-1.44,2.27-1.47,2.26-1.54-1.33,1.16-1.51,1.35-2.07,1.89-1.83,1.69.54-.31,1.07-.66,1.4-.85,2.96-1.88,3.97-2.63,2.94-2.06,1.56-1.1-.77.64-1.18.98-1.18.98-1.97,1.73-2.05,1.81-2.45,2.26-1.18,1.1.56-.33,1.12-.68,1.32-.82,1.94-1.2,1.35-.88-1.18,1.04-2.46,2.2-1.85,1.69-1.4,1.3,3.1-1.9,2.43-1.52,3.22-2.11,4.63-3.22-.81.75-.73.62-1.28,1.19-1.35,1.2-2.97,2.75,3.78-2.33,2.77-1.75,7.19-4.92,1.07-.77.08-.06,1-.6-1.06.83-1.26,1.01-1.59,1.26-2.26,1.86-2.21,1.85-3.09,2.67-3.64,3.29-1.37,1.3,3.07-1.86,3.34-2.11-1.45,1.36,1.6-.96,1.61-.99,2.31-1.47,3.19-2.09-2.33,2.16-.75.6-1.89,1.55-3.22,2.71-3.61,3.16-3.79,3.5,5.49-3.39,3.7-2.44,5.23-3.65-2.58,2.03-2.24,1.8-2.95,2.44-2,1.69-4.44,3.92-2.7,2.52,4.98-3.08,3.2-2.09,4.03-2.78-1.48,1.31-1.58,1.44-1.62,1.48-1.75,1.62,1.2-.72,3.24-2.02,4.2-2.72,2-1.38-1.31,1.09-1.52,1.28-1.96,1.65-2.12,1.83-2.26,2-2.89,2.68,2.62-1.58,2.45-1.52,2.88-1.89,2.67-1.82.79-.52-.54.51-1.04.89-2.67,2.37-1.33,1.21-1.93,1.81,1.44-.86,1.14-.69,3.03-1.9,3.09-2.05-2.31,1.85-5.05,4.09-5.19,4.43-4.51,4.15,4.23-2.6,4.82-3.13,8.29-5.84-3.61,3.1-5.64,5.08,5.7-3.54,5.84-3.94-4.46,4.09,3.53-2.12,3.08-2-6.29,5.13-5.56,4.8-3.47,3.13,3.12-1.95,4.41-2.9,5.12-3.5,8.05-5.83,8.54-6.51,27.44-21.46,65.73-49.63h0l91.18-68.57s48.14-45.8-39.95-111.35c3.83,5.63,45.96,50.69-13.97,82-10.1,5.71-24.02,13.77-37.26,21.49h0l-108.82,62.95-3.97,2.67-1.9,1.29,1.03-.47,2.05-.93,3.16-1.47,1.69-.83-1.16.77-2.51,1.69-3.21,2.24-4.47,3.21,1.62-.78,1.44-.71,4.1-2.05,4.18-2.22,3.36-1.84-.51.32-1.87,1.22-3.02,1.99-3,2.07-2.83,2.03-2.41,1.81-2.01,1.52.72-.36,2.28-1.08,3.45-1.72,3.41-1.8,2.32-1.28-.46.33-1.22.89-1.91,1.49-1.97,1.51.95-.47-1.47,1.03,2.08-.89-4.04,3.02-2.48,1.95,2.75-1.34,2.59-1.34-3.36,2.66-2.92,2.4-3.09,2.61-2.79,2.41,4.32-2.6,3.55-2.23,1.96-1.28-.88.74-1.41,1.2-3.34,2.94-3.34,3.1,4.1-2.5,3.6-2.31,2.13-1.43,2.47-1.73,2.55-1.81-1.92,1.61-1.84,1.57-1.65,1.08-2.35,1.57-3.05,2.12-3.7,2.69-2.87,2.18,2.84-1.36,3.35-1.66,2.56-1.34,1.81-.97-.57.35-.93.59-1.66,1.1-1.95,1.29-2.18,1.49-2,1.38-4.28,3.09-2.74,2.08,2.05-.97,3.16-1.55,3.51-1.82,2.04-1.09,2.63-1.49,2.52-1.43,1.91-1.12-1.37,1.11-1.56,1.27-2.33,1.96-1.97,1.69-2.82,2.52-1.26,1.14-1.75,1.66,1.19-.71,2.45-1.51-1.49,1.31-1.51,1.33-1.86,1.69-2.07,1.95,1.85-1.11,2.67-1.65,2.83-1.83,3.51-2.36,1.06-.69-1.92,1.78-1,.93,1.39-.83,2.31-1.42,1.35-.86.85-.56-1.18,1.04-1.59,1.1-1.5,1.06-2.29,1.64-1.96,1.46-2.09,1.59,1.83-.86,3.71-1.82,2.48-1.28-2.06,1.64-2.43,1.99-2.56,2.14-1.85,1.61-2.11,1.86-2.28,2.08-1.58,1.46,1.77-1.07,2.37-1.46,3.85-2.49,3.87-2.64,3.2-2.27,2.21-1.61-2.53,2.02-3.25,2.68-2.34,1.99-2.79,2.46-1.95,1.79-1.89,1.75,1.29-.78,1.93-1.17,2.19-1.4,2.33-1.51,1.88-1.27-1.11.97-.97.85-1.84,1.66-1.81,1.68-1.07.97.61-.36,1.97-1.2,2.33-1.46,2.62-1.69,2-1.35-.86.72-1.4,1.24-2.43,2.13-3.72,3.42,4.72-2.88,5.27-3.48,3.86-2.71-.45.41,1.51-.94-.86.66-1.95,1.44Z"/></g></g><g><path class="l" d="m98.14,667.17l12.76-.18v7.37c-1.44-.24-3.12-.36-5.03-.36s-4.08.12-6.47.36c0,9.23-4.44,18.58-13.3,28.04-8.87,9.46-19.56,17.17-32.08,23.1-12.52,5.93-24.18,8.9-34.96,8.9-5.63,0-10.22-1.44-13.75-4.32-3.53-2.88-5.3-6.65-5.3-11.32,0-6.95,4.61-14.2,13.84-21.75,9.23-7.55,20.01-13.78,32.35-18.69,12.34-4.91,23.48-7.79,33.43-8.63-1.2-1.8-3.06-3.35-5.57-4.68-2.52-1.32-7.67-3.38-15.46-6.2-7.79-2.81-13.3-5.93-16.54-9.35-3.24-3.41-4.85-8.24-4.85-14.47s3.35-13.36,10.06-21.39c6.71-8.03,14.65-14.77,23.82-20.22,9.17-5.45,17.23-8.18,24.18-8.18,3.12,0,5.69,1.11,7.73,3.33,2.04,2.22,3.06,4.94,3.06,8.18,0,5.27-3.18,11.89-9.53,19.86-6.35,7.97-13.42,14.05-21.21,18.24l-4.31-6.11c4.67-2.4,8.78-6.14,12.31-11.23,3.53-5.09,5.3-9.5,5.3-13.21s-1.98-5.57-5.93-5.57c-5.63,0-12.07,3.5-19.32,10.51-7.25,7.01-10.87,13.57-10.87,19.68,0,4.2,1.08,7.49,3.23,9.89,2.16,2.4,7.61,5.36,16.36,8.9,8.75,3.54,14.98,6.65,18.69,9.35,3.71,2.7,6.17,6.08,7.37,10.15Zm-80.16,46.91c0,5.75,4.67,8.63,14.02,8.63,5.15,0,11.83-1.89,20.04-5.66,8.21-3.77,15.46-9.05,21.75-15.82,6.29-6.77,9.44-13.69,9.44-20.76,0-.84-.18-2.1-.54-3.78-16.42,1.56-31.31,6.17-44.67,13.84-13.36,7.67-20.04,15.52-20.04,23.55Z"/><path class="l" d="m188.37,688.38l.54,4.67c-.48.36-6.05,2.52-16.72,6.47-1.44,7.91-3.27,15.73-5.48,23.46-2.22,7.73-4.44,13.6-6.65,17.62-2.22,4.01-4.83,8-7.82,11.95-5.99,7.91-14.08,11.86-24.27,11.86-5.03,0-9.05-1.56-12.04-4.67-3-3.12-4.49-7.37-4.49-12.76,0-20.73,17.37-37.39,52.13-49.97l9.7-34.15c-10.31,15.46-19.59,24.98-27.86,28.58-4.08,1.92-8.36,2.88-12.85,2.88s-8.09-1.44-10.78-4.31c-2.7-2.88-4.04-7.07-4.04-12.58s1.89-13.21,5.66-23.1c3.77-9.89,8-18.18,12.67-24.89l8.81,3.77c-.36.36-2.04,3.54-5.03,9.53-5.27,10.91-7.91,18.99-7.91,24.27s1.02,8.81,3.06,10.61c2.04,1.8,5.03,2.7,8.99,2.7s8.42-2.36,13.39-7.1c4.97-4.73,12.67-14.11,23.1-28.13l6.47,3.78c-.96,3.96-3.09,11.12-6.38,21.48-3.3,10.37-5.54,18.31-6.74,23.82l14.56-5.75Zm-25.88,14.02c-7.55,3.47-14.2,7.43-19.95,11.86-10.78,8.15-16.18,16.06-16.18,23.73,0,2.88.84,5.21,2.52,7.01,1.68,1.8,3.78,2.7,6.29,2.7,11.98,0,21.09-15.1,27.32-45.3Z"/><path class="l" d="m223.6,682.45l3.77,3.06c-4.07,6.35-7.58,10.94-10.51,13.75-2.94,2.81-6.2,4.22-9.8,4.22s-6.53-1.44-8.81-4.32c-2.28-2.88-3.42-6.47-3.42-10.78,0-8.39,5.51-26.45,16.54-54.19,11.02-27.74,22.35-52.16,33.97-73.25l7.91,4.32c-11.74,22.77-22.35,45.38-31.81,67.85-9.47,22.47-14.2,38.62-14.2,48.44,0,5.63,2.09,8.45,6.29,8.45,3.35,0,6.71-2.52,10.07-7.55Z"/><path class="l" d="m278.6,676.52l3.6,3.06c-2.88,5.51-6.68,10.22-11.42,14.11-4.74,3.89-9.02,5.84-12.85,5.84-6.71,0-10.06-4.67-10.06-14.02,0-11.62,4.79-26.78,14.38-45.48,2.16-4.07,3.41-6.47,3.77-7.19l7.73,4.67c-2.52,4.56-5.6,11.8-9.26,21.75-3.66,9.95-5.48,16.33-5.48,19.14s.6,4.83,1.8,6.02c1.2,1.2,2.64,1.8,4.32,1.8,3.23,0,7.73-3.24,13.48-9.71Zm2.34-53.02c-6.71,0-10.06-2.7-10.06-8.09,0-2.99.84-5.51,2.52-7.55,1.68-2.04,3.83-3.05,6.47-3.05s4.79.78,6.47,2.34c1.68,1.56,2.52,3.59,2.52,6.11s-.72,4.85-2.16,7.01c-1.44,2.16-3.36,3.24-5.75,3.24Z"/><path class="l" d="m341.15,674.18l4.31,3.6c-2.88,6.59-7.49,11.86-13.84,15.82-6.35,3.96-12.49,5.93-18.42,5.93s-10.85-1.86-14.74-5.57c-3.9-3.71-5.84-8.81-5.84-15.28s2.82-13.48,8.45-21.03c5.63-7.55,12.91-13.78,21.84-18.69,8.92-4.91,17.7-7.37,26.33-7.37,1.2,0,2.99.12,5.39.36l-.54,7.01c-13.18.6-24.12,4.61-32.8,12.04-8.69,7.43-13.03,15.34-13.03,23.73,0,3.48,1.08,6.29,3.23,8.45,2.16,2.16,4.97,3.24,8.45,3.24,5.51,0,12.58-4.07,21.21-12.22Z"/><path class="l" d="m409.27,646.32c3.11,5.15,4.67,10.85,4.67,17.08,0,9.71-3.36,18.36-10.07,25.97-6.71,7.61-14.62,11.41-23.72,11.41-6.95,0-12.37-2-16.27-6.02-3.9-4.01-5.84-9.55-5.84-16.62,0-11.38,4.43-21.6,13.3-30.65,8.87-9.05,18.81-13.57,29.84-13.57,2.04,0,3.48.06,4.32.18l.54,5.93c-9.59,0-17.56,2.76-23.91,8.27-6.35,5.51-9.53,12.58-9.53,21.21,0,5.15,1.26,9.32,3.77,12.49,2.52,3.18,6.2,4.76,11.06,4.76s8.72-2.16,11.59-6.47c2.88-4.31,4.31-9.38,4.31-15.19s-1.14-11.11-3.41-15.91l9.35-2.88Z"/></g></g></g></svg>